<?xml version="1.0" encoding="UTF-8"?>
<svg width="139px" height="93px" viewBox="0 0 139 93" version="1.1" xmlns="http://www.w3.org/2000/svg" xmlns:xlink="http://www.w3.org/1999/xlink">
    <g id="页面-1" stroke="none" stroke-width="1" fill="none" fill-rule="evenodd">
        <g id="麻醉-空白页" transform="translate(-760.000000, -345.000000)">
            <g id="pt图形" transform="translate(761.000000, 346.000000)">
                <rect id="矩形" fill="#FFFFFF" x="0" y="0" width="126.9" height="90"></rect>
                <polygon id="矩形备份-3" fill="#538BFE" points="4.5 14.4 46.8 14.4 46.8 27.9 4.5 27.9"></polygon>
                <polygon id="矩形备份-7" fill="#98BAFE" points="57.6 14.4 99.9 14.4 99.9 19.8 57.6 19.8"></polygon>
                <polygon id="矩形备份-12" fill="#98BAFE" points="57.6 69.3 99.9 69.3 99.9 74.7 57.6 74.7"></polygon>
                <polygon id="矩形备份-13" fill="#98BAFE" points="57.6 77.4 99.9 77.4 99.9 82.8 57.6 82.8"></polygon>
                <polygon id="矩形备份-8" fill="#98BAFE" points="57.6 22.5 120.6 22.5 120.6 27.9 57.6 27.9"></polygon>
                <polygon id="矩形备份-9" fill="#98BAFE" points="57.6 30.6 120.6 30.6 120.6 36 57.6 36"></polygon>
                <polygon id="矩形备份-11" fill="#98BAFE" points="57.6 45.9 120.6 45.9 120.6 51.3 57.6 51.3"></polygon>
                <polygon id="矩形备份-10" fill="#98BAFE" points="57.6 54 120.6 54 120.6 59.4 57.6 59.4"></polygon>
                <polygon id="矩形备份-4" fill="#538BFE" points="4.5 32.4 46.8 32.4 46.8 45.9 4.5 45.9"></polygon>
                <polygon id="矩形备份-5" fill="#538BFE" points="4.5 50.4 46.8 50.4 46.8 63.9 4.5 63.9"></polygon>
                <rect id="矩形备份" fill="#98BAFE" x="0" y="0" width="126.9" height="9"></rect>
                <circle id="椭圆形" fill="#FFFFFF" cx="5.85" cy="4.05" r="1.35"></circle>
                <circle id="椭圆形备份" fill="#FFFFFF" cx="12.15" cy="4.05" r="1.35"></circle>
                <circle id="椭圆形备份-2" fill="#FFFFFF" cx="18.45" cy="4.05" r="1.35"></circle>
                <g id="刷新" transform="translate(109.800000, 63.000000)" fill-rule="nonzero">
                    <rect id="矩形" fill="#FFFFFF" x="0" y="0" width="28.08" height="28.08" rx="14.04"></rect>
                    <path d="M14.04,0 C21.781305,0 28.08,6.298695 28.08,14.04 C28.08,21.781305 21.781305,28.08 14.04,28.08 C6.298695,28.08 0,21.781305 0,14.04 C0,6.298695 6.298695,0 14.04,0 Z M17.11125,20.35449 L17.11125,17.55 C17.11125,17.0653701 16.7183799,16.6725 16.23375,16.6725 C15.7491201,16.6725 15.35625,17.0653701 15.35625,17.55 L15.35625,22.815 L20.62125,22.815 C21.1058799,22.815 21.49875,22.4221299 21.49875,21.9375 C21.49875,21.4528701 21.1058799,21.06 20.62125,21.06 L19.3076325,21.06 C21.5162368,19.4022522 22.8156215,16.8015322 22.8150002,14.04 C22.8150002,9.5586075 19.440135,5.810805 15.021045,5.319405 C14.5393229,5.26561108 14.1052014,5.61251541 14.0514075,6.0942375 C13.9976136,6.57595959 14.3445179,7.01008108 14.82624,7.063875 C17.9306779,7.41341989 20.4307033,9.77216342 20.960045,12.8510454 C21.4893866,15.9299273 19.920689,18.9881925 17.11125,20.35449 Z M10.53,7.958925 L10.53,10.53 C10.53,11.0146299 10.9228701,11.4075 11.4075,11.4075 C11.8921299,11.4075 12.285,11.0146299 12.285,10.53 L12.285,5.265 L7.02,5.265 C6.53537013,5.265 6.1425,5.65787013 6.1425,6.1425 C6.1425,6.62712987 6.53537013,7.02 7.02,7.02 L8.773245,7.02 C5.91625348,9.16465127 4.64421684,12.8269463 5.55664686,16.2808428 C6.46907689,19.7347393 9.38388894,22.2909773 12.92733,22.7448 C13.4031536,22.7962507 13.8324455,22.4569322 13.8922794,21.9820899 C13.9521134,21.5072476 13.6204183,21.0720386 13.146705,21.00384 C10.1593535,20.6198712 7.7496137,18.3734752 7.15724555,15.4203749 C6.56487739,12.4672746 7.92183799,9.46530882 10.53,7.958925 L10.53,7.958925 Z" id="形状" fill="#98BAFE"></path>
                </g>
                <polyline id="路径-3" stroke="#256CFF" stroke-width="0.9" points="126.9 57.6 126.9 0 0 0 0 90 107.1 90"></polyline>
                <line x1="52.65" y1="9" x2="52.65" y2="89.1" id="路径-2" stroke="#538BFE" stroke-width="0.9"></line>
                <g id="箭头" transform="translate(49.500000, 46.800000) scale(-1, 1) translate(-49.500000, -46.800000) translate(36.000000, 33.300000)" fill-rule="nonzero">
                    <rect id="矩形" fill="#000000" opacity="0" x="0" y="0" width="27" height="27"></rect>
                    <path d="M16.983762,14.0891941 L9.17851805,21.8944381 C8.84456212,22.228394 8.30313788,22.228394 7.96916695,21.8944231 L5.10556195,19.0305481 C4.77160602,18.6965921 4.77160602,18.1554379 5.10556195,17.8214819 L12.9108059,10.016238 L8.53219639,8.11743332 C8.1796198,7.96421344 7.97233326,7.59480335 8.0258187,7.21471877 C8.07890262,6.83342787 8.38009355,6.53472201 8.76176874,6.4852353 L21.1782156,4.86234191 C21.4416791,4.8275556 21.7063485,4.91747235 21.8941681,5.10529195 C22.0821809,5.29330478 22.1721886,5.55794298 22.1373881,5.82151436 L22.1374649,5.82093001 L20.5145028,18.2381692 C20.4899066,18.4265541 20.4036855,18.5994406 20.2711981,18.7319281 C20.1406957,18.8624304 19.9712518,18.9478171 19.7857577,18.9740767 C19.4050328,19.0277321 19.0351236,18.8201655 18.8824284,18.467485 L16.983762,14.0891941 Z" id="路径" stroke="#FFFFFF" stroke-width="0.9" fill="#364256"></path>
                </g>
            </g>
        </g>
    </g>
</svg>